<?xml version="1.0" standalone="no"?>
<!DOCTYPE svg PUBLIC "-//W3C//DTD SVG 20010904//EN"
 "http://www.w3.org/TR/2001/REC-SVG-20010904/DTD/svg10.dtd">
<svg version="1.0" xmlns="http://www.w3.org/2000/svg"
 width="233.000000pt" height="233.000000pt" viewBox="0 0 233.000000 233.000000"
 preserveAspectRatio="xMidYMid meet">

<g transform="translate(0.000000,233.000000) scale(0.100000,-0.100000)"
fill="#000000" stroke="none">
<path d="M231 1628 c1 -440 2 -468 15 -394 57 317 259 593 544 744 104 55 223
95 322 108 24 4 45 8 47 10 2 2 -206 4 -462 4 l-467 0 1 -472z"/>
<path d="M1480 2080 c228 -48 391 -137 550 -299 152 -154 245 -335 285 -556
12 -62 13 -15 14 403 l1 472 -467 -1 -468 0 85 -19z"/>
<path d="M888 1438 c-75 -20 -128 -115 -107 -191 43 -158 255 -158 298 0 20
71 -32 172 -97 187 -15 4 -34 8 -42 10 -8 2 -32 -1 -52 -6z"/>
<path d="M1578 1438 c-75 -20 -128 -115 -107 -191 43 -158 255 -158 298 0 20
71 -32 172 -97 187 -15 4 -34 8 -42 10 -8 2 -32 -1 -52 -6z"/>
<path d="M1025 964 c-134 -13 -233 -28 -277 -40 -66 -20 -81 -52 -68 -147 26
-180 136 -325 302 -396 141 -60 388 -69 544 -18 198 65 325 214 354 414 13 96
-2 127 -72 147 -29 9 -84 21 -123 26 -69 11 -582 22 -660 14z m609 -89 c94 -8
173 -20 176 -26 4 -5 2 -34 -5 -62 l-12 -52 -508 -3 c-280 -1 -512 1 -516 5
-4 5 -9 33 -11 63 l-3 54 45 8 c174 29 577 36 834 13z m-351 -376 c15 1 53 2
85 4 43 1 69 -4 105 -22 35 -17 45 -26 35 -32 -17 -11 -439 -11 -456 0 -10 6
-2 14 30 29 67 31 70 32 123 26 28 -3 62 -5 78 -5z"/>
<path d="M230 467 l0 -467 468 1 c269 1 450 5 427 9 -22 5 -53 11 -70 14 -46
8 -153 45 -220 76 -140 63 -308 201 -403 330 -93 128 -166 304 -188 455 -4 22
-8 42 -10 44 -2 2 -4 -206 -4 -462z"/>
<path d="M2319 908 c0 -13 -2 -30 -4 -38 -2 -8 -6 -29 -9 -47 -12 -65 -65
-204 -106 -278 -155 -281 -451 -490 -752 -531 -24 -4 -45 -8 -47 -10 -2 -2
206 -4 462 -4 l467 0 0 465 c0 256 -2 465 -5 465 -3 0 -5 -10 -6 -22z"/>
</g>
</svg>
